<?xml version="1.0" standalone="no"?>
<!DOCTYPE svg PUBLIC "-//W3C//DTD SVG 20010904//EN"
 "http://www.w3.org/TR/2001/REC-SVG-20010904/DTD/svg10.dtd">
<svg version="1.0" xmlns="http://www.w3.org/2000/svg"
 width="1785.000000pt" height="2579.000000pt" viewBox="0 0 1785.000000 2579.000000"
 preserveAspectRatio="xMidYMid meet">

<g transform="translate(0.000000,2579.000000) scale(0.100000,-0.100000)"
fill="#000000" stroke="none">
<path d="M4275 24904 c-88 -17 -214 -79 -281 -138 -101 -89 -148 -229 -126
-374 32 -208 149 -303 466 -381 225 -56 266 -83 266 -175 0 -44 -4 -53 -39
-86 -114 -109 -412 -68 -620 85 -34 25 -68 45 -76 45 -13 0 -15 -26 -15 -171
l0 -170 53 -24 c67 -29 173 -60 256 -75 94 -17 303 -15 391 4 268 57 427 251
407 499 -9 109 -32 163 -96 228 -77 77 -170 119 -381 174 -95 25 -187 54 -204
65 -62 38 -75 116 -29 171 102 121 371 97 583 -52 32 -22 63 -38 69 -34 7 4
11 64 11 166 l0 160 -42 19 c-156 68 -424 98 -593 64z"/>
<path d="M6438 24910 c-186 -34 -342 -141 -406 -278 -24 -51 -27 -68 -27 -172
0 -108 2 -119 32 -182 63 -134 172 -201 436 -268 178 -45 203 -56 242 -102 23
-28 27 -39 23 -80 -6 -55 -25 -80 -83 -111 -34 -19 -57 -22 -160 -22 -101 0
-131 4 -190 24 -94 32 -169 70 -235 120 -30 23 -60 41 -67 41 -10 0 -13 -40
-13 -174 l0 -174 84 -31 c126 -45 194 -61 311 -70 267 -21 457 31 585 159 94
95 139 225 125 360 -23 217 -141 312 -496 400 -214 53 -248 80 -241 187 3 40
64 89 136 108 142 39 327 -9 488 -126 23 -16 45 -29 50 -29 4 0 8 76 8 169 l0
168 -57 21 c-119 43 -225 63 -363 67 -74 2 -156 0 -182 -5z"/>
<path d="M1500 24892 c-7 -2 -10 -258 -10 -723 l0 -719 175 0 175 0 0 233 0
234 148 6 c223 9 324 45 435 154 95 94 137 203 137 364 0 110 -18 182 -62 251
-52 83 -113 128 -227 171 -52 19 -84 21 -409 26 -194 3 -357 5 -362 3z m603
-295 c80 -34 116 -116 98 -227 -20 -124 -86 -169 -258 -178 l-103 -5 0 215 c0
118 3 218 7 222 15 14 206 -6 256 -27z"/>
<path d="M2750 24170 l0 -720 470 0 470 0 0 135 0 135 -292 2 -293 3 -3 183
-2 182 270 0 270 0 0 140 0 140 -270 0 -270 0 0 125 0 125 295 0 295 0 0 135
0 135 -470 0 -470 0 0 -720z"/>
<path d="M5082 24768 l3 -123 98 -3 97 -3 0 -469 0 -470 -99 0 -99 0 -1 -125
-2 -125 376 0 375 0 0 125 0 125 -100 0 -100 0 0 470 0 470 100 0 100 0 0 125
0 125 -375 0 -376 0 3 -122z"/>
<path d="M7220 24765 l0 -125 100 0 100 0 0 -470 0 -470 -100 0 -100 0 0 -125
0 -125 375 0 375 0 0 125 0 125 -100 0 -100 0 0 470 0 470 100 0 100 0 0 125
0 125 -375 0 -375 0 0 -125z"/>
<path d="M8200 24170 l0 -720 175 0 175 0 0 265 0 265 63 0 62 0 194 -265 193
-265 209 0 c115 0 209 2 209 5 0 2 -103 140 -230 306 l-230 302 59 39 c146 95
208 226 199 420 -5 115 -33 182 -107 251 -114 107 -166 117 -618 117 l-353 0
0 -720z m637 437 c73 -39 102 -110 83 -205 -22 -117 -79 -153 -252 -160 l-118
-5 0 198 0 197 128 -4 c94 -3 135 -9 159 -21z"/>
<path d="M10150 24169 l0 -721 363 5 c292 3 372 7 416 20 142 42 240 120 294
234 26 57 32 83 35 159 5 110 -13 183 -61 246 -36 47 -120 103 -182 119 -36
10 -38 12 -20 23 48 28 125 111 146 159 33 72 34 220 3 287 -43 91 -138 157
-258 179 -36 7 -196 11 -398 11 l-338 0 0 -721z m571 451 c123 -34 127 -241 5
-279 -17 -5 -75 -13 -128 -17 l-98 -6 0 156 0 156 93 0 c50 0 108 -5 128 -10z
m95 -567 c58 -30 84 -74 84 -144 0 -145 -54 -182 -277 -193 l-123 -6 0 186 0
187 138 -5 c114 -3 146 -8 178 -25z"/>
<path d="M11772 24858 c-5 -18 -109 -339 -231 -713 -121 -374 -221 -684 -221
-688 0 -4 78 -7 173 -7 l172 0 34 118 c18 64 39 132 47 150 l13 32 215 0 214
0 14 -47 c8 -27 27 -94 44 -150 l29 -103 178 0 c97 0 177 3 177 7 0 4 -104
328 -232 720 l-232 713 -192 0 -193 0 -9 -32z m267 -605 c35 -120 66 -224 69
-230 3 -10 -29 -13 -138 -13 -109 0 -141 3 -138 13 3 6 33 110 69 229 35 120
66 218 69 218 3 0 34 -98 69 -217z"/>
<path d="M12770 24171 l0 -721 175 0 175 0 0 265 0 265 64 0 64 0 193 -265
194 -265 364 2 365 3 28 95 c16 52 36 119 44 148 l15 52 215 0 215 0 13 -32
c7 -18 28 -86 47 -150 l33 -118 178 0 c98 0 178 3 178 6 0 3 -88 277 -196 607
-108 331 -212 653 -232 715 l-36 112 -192 0 -193 0 -65 -202 c-207 -642 -383
-1179 -388 -1184 -3 -3 -102 122 -220 277 l-215 282 61 42 c136 93 197 211
197 385 1 190 -74 302 -250 372 -54 22 -70 23 -443 26 l-388 3 0 -720z m645
433 c59 -31 80 -74 79 -159 -1 -151 -77 -205 -290 -205 l-84 0 0 196 0 196
128 -4 c104 -3 135 -7 167 -24z m1326 -359 c34 -115 64 -216 67 -222 3 -10
-29 -13 -138 -13 -131 0 -142 1 -138 18 45 160 134 440 139 434 4 -4 35 -101
70 -217z"/>
<path d="M15330 24755 l0 -135 205 0 205 0 0 -585 0 -585 175 0 175 0 0 585 0
585 205 0 205 0 0 135 0 135 -585 0 -585 0 0 -135z"/>
<path d="M498 18133 c-5 -8313 -4 -10011 9 -10108 6 -49 21 -172 32 -272 22
-196 67 -513 81 -578 5 -22 10 -57 10 -77 0 -20 4 -39 8 -42 14 -9 152 24 272
64 164 54 283 110 636 296 544 288 759 364 1029 364 273 0 474 -70 1070 -370
524 -265 712 -335 960 -361 252 -27 546 47 905 226 69 34 253 127 410 207 495
251 708 317 985 305 259 -11 464 -88 974 -364 443 -241 677 -336 907 -369 146
-21 289 -10 467 36 173 44 315 103 707 295 483 236 608 289 810 340 265 67
487 50 790 -61 100 -37 185 -79 730 -355 528 -268 792 -318 1171 -220 177 46
320 107 734 316 484 244 663 315 884 351 176 29 354 12 554 -53 167 -53 269
-99 669 -299 205 -102 419 -205 477 -229 125 -51 309 -107 323 -99 5 4 8 22 6
40 -2 19 -1 34 2 34 4 0 12 21 18 48 84 349 153 675 196 937 l24 150 4 2520
c2 1386 2 4580 1 7098 l-3 4577 -2420 0 -2420 0 0 -1515 c0 -833 -2 -1515 -5
-1515 -2 0 -75 38 -162 85 -568 304 -1253 544 -1918 670 -540 102 -1143 149
-1607 126 -938 -46 -1759 -230 -2541 -567 -218 -95 -554 -267 -757 -388 l-175
-104 -3 1604 -2 1604 -2420 0 -2420 0 -2 -4347z m8387 2150 c-16 -2 -102 -10
-190 -19 -338 -33 -739 -105 -1030 -184 -931 -255 -1672 -678 -2321 -1325
-479 -478 -864 -1032 -1194 -1718 -83 -173 -209 -463 -255 -588 l-29 -77 -26
42 c-124 195 -453 243 -649 95 -28 -21 -51 -35 -51 -30 0 18 74 212 132 346
360 832 943 1560 1718 2145 487 367 1035 664 1652 894 611 227 1336 377 2018
415 149 8 278 11 225 4z m575 -3 c1280 -77 2430 -453 3425 -1120 985 -659
1720 -1572 2091 -2598 l34 -93 -56 40 c-163 116 -402 115 -562 -3 -31 -24 -68
-62 -82 -84 -14 -23 -27 -42 -30 -42 -3 0 -29 62 -59 138 -499 1264 -1242
2237 -2192 2870 -722 481 -1610 782 -2584 876 -280 27 -274 33 15 16z m-1094
-126 c-1409 -370 -2473 -1243 -3211 -2632 -157 -296 -337 -705 -450 -1026
l-42 -118 -22 35 c-72 118 -253 198 -410 182 -82 -8 -172 -38 -228 -76 -24
-17 -43 -28 -43 -26 0 8 79 195 135 322 493 1111 1192 1977 2050 2541 619 406
1306 669 2095 803 317 54 345 53 126 -5z m1531 6 c883 -147 1663 -469 2323
-959 200 -148 349 -279 555 -485 469 -470 819 -969 1150 -1641 96 -194 255
-554 255 -576 0 -5 -19 5 -42 21 -101 73 -287 96 -420 51 -80 -27 -164 -85
-202 -140 -16 -23 -31 -41 -35 -41 -3 0 -19 37 -34 83 -16 45 -62 165 -102
267 -290 737 -658 1368 -1099 1885 -111 130 -372 392 -506 507 -473 409 -1004
711 -1605 914 -104 35 -264 84 -355 109 -183 50 -162 51 117 5z m-1082 12
c-16 -10 -75 -45 -130 -77 -596 -348 -1111 -856 -1517 -1497 -344 -543 -622
-1191 -832 -1943 -37 -132 -70 -246 -72 -254 -3 -9 -14 0 -33 26 -62 85 -165
144 -288 164 -125 20 -271 -16 -365 -92 -21 -16 -38 -25 -38 -18 0 25 94 340
161 534 242 714 521 1236 948 1775 109 138 454 479 611 604 426 339 922 599
1453 760 131 40 142 42 102 18z m682 -41 c249 -82 389 -138 608 -246 865 -425
1506 -1077 1984 -2020 197 -387 383 -882 510 -1358 10 -39 10 -39 -12 -23
-120 88 -180 109 -312 109 -77 0 -114 -5 -160 -22 -78 -28 -156 -80 -191 -128
-15 -21 -31 -42 -35 -47 -4 -5 -13 11 -19 35 -357 1385 -928 2435 -1710 3146
-254 232 -458 377 -820 587 -25 14 -40 26 -33 26 6 0 92 -26 190 -59z m-723
-99 c-271 -269 -487 -539 -696 -872 -435 -691 -763 -1552 -978 -2570 -23 -107
-43 -196 -45 -198 -2 -2 -6 5 -9 16 -11 34 -104 112 -169 142 -88 42 -188 56
-279 41 -85 -14 -179 -55 -231 -101 -20 -17 -37 -26 -37 -20 0 7 27 106 59
219 476 1652 1257 2769 2381 3405 74 42 136 76 138 76 2 0 -58 -62 -134 -138z
m355 -102 c161 -755 258 -1441 312 -2200 13 -193 24 -1093 14 -1222 l-7 -95
-49 52 c-93 98 -247 148 -394 127 -106 -16 -208 -65 -268 -132 l-44 -49 -6
151 c-15 345 -4 882 28 1323 48 656 156 1388 311 2100 37 172 42 190 48 184 3
-2 27 -110 55 -239z m334 -55 c721 -781 1206 -1804 1516 -3198 28 -126 51
-230 51 -233 0 -3 -18 13 -41 34 -166 160 -476 156 -640 -8 l-47 -47 -6 81
c-2 44 -10 169 -15 276 -56 1025 -392 2055 -1088 3327 l-37 68 93 -85 c52 -47
148 -143 214 -215z m79 119 c310 -197 579 -418 820 -675 653 -696 1111 -1590
1446 -2822 l11 -38 -27 21 c-126 97 -254 133 -395 110 -119 -19 -219 -74 -281
-156 l-32 -41 -38 186 c-144 689 -358 1356 -611 1902 -290 625 -681 1187
-1108 1595 l-102 98 99 -53 c55 -29 153 -86 218 -127z m-972 162 c0 -3 -24
-12 -52 -21 -205 -67 -574 -238 -798 -370 -855 -505 -1495 -1295 -1931 -2381
-86 -216 -220 -618 -280 -843 -42 -156 -44 -162 -59 -140 -90 140 -274 217
-449 190 -80 -12 -164 -46 -218 -87 -18 -14 -33 -21 -33 -16 0 5 29 85 65 178
261 675 585 1262 960 1739 668 850 1526 1419 2555 1694 228 61 240 64 240 57z
m382 -48 c-66 -117 -174 -323 -261 -496 -538 -1075 -807 -2039 -838 -3002 l-6
-196 -45 48 c-57 61 -158 112 -254 128 -135 23 -292 -20 -387 -105 -30 -27
-41 -33 -41 -21 0 49 131 596 201 841 209 728 502 1391 844 1910 105 160 236
337 350 475 82 99 444 470 458 470 5 0 -5 -24 -21 -52z m848 -5 c1106 -299
2003 -917 2684 -1850 347 -476 639 -1036 890 -1706 14 -38 20 -65 13 -60 -7 4
-30 20 -51 35 -99 71 -294 94 -421 49 -82 -29 -160 -83 -197 -136 -18 -25 -34
-45 -38 -45 -3 0 -18 48 -34 108 -206 775 -514 1473 -889 2014 -351 507 -787
922 -1292 1229 -171 104 -454 245 -635 316 -85 33 -173 68 -195 77 l-40 16 40
-6 c22 -4 96 -22 165 -41z m-795 -12 c-3 -10 -30 -137 -60 -282 -223 -1089
-312 -1958 -303 -2969 l3 -425 -55 55 c-64 65 -126 96 -230 118 -152 31 -328
-23 -424 -129 l-46 -51 0 66 c0 191 34 594 71 831 116 756 362 1476 795 2335
187 371 274 527 249 451z m265 -220 c635 -1198 943 -2227 977 -3264 l6 -199
-51 54 c-169 179 -505 178 -664 -2 l-41 -45 7 300 c10 440 -14 1038 -60 1505
-50 511 -153 1163 -269 1703 -19 89 -35 166 -35 172 0 17 25 -26 130 -224z
m4007 -906 c0 -8 -4 -12 -9 -9 -5 3 -6 10 -3 15 9 13 12 11 12 -6z m1343
-1479 c0 -3 -4 -8 -10 -11 -5 -3 -10 -1 -10 4 0 6 5 11 10 11 6 0 10 -2 10 -4z
m-8661 -941 c123 -16 247 -117 279 -226 21 -71 46 -80 57 -21 30 163 228 276
441 250 152 -18 287 -127 309 -250 11 -59 36 -50 57 21 71 240 451 316 653
130 53 -49 81 -98 91 -158 5 -31 11 -41 25 -41 12 0 19 7 19 18 0 42 35 115
77 162 107 120 330 159 488 86 102 -46 195 -160 195 -238 0 -21 5 -28 18 -28
15 0 22 13 31 54 30 134 162 229 337 243 72 6 207 -18 220 -38 3 -5 13 -9 24
-9 10 0 42 -21 70 -47 56 -50 100 -128 100 -175 0 -21 5 -28 18 -28 15 0 22
13 31 54 47 211 354 317 581 201 85 -44 150 -126 168 -212 11 -53 39 -57 48
-6 28 156 181 264 377 265 40 0 93 -5 117 -12 136 -37 239 -135 257 -246 7
-43 40 -48 49 -6 34 159 181 262 374 264 85 0 143 -13 213 -48 89 -46 166
-145 167 -216 0 -21 5 -28 19 -28 15 0 23 13 35 53 42 145 184 237 366 239 81
0 143 -13 202 -43 l38 -19 0 -1185 c0 -762 -3 -1185 -10 -1185 -14 0 -332 189
-510 303 -174 111 -423 282 -562 385 -84 62 -95 74 -108 117 -9 29 -26 56 -41
68 -24 17 -30 18 -55 5 -28 -14 -31 -12 -89 31 -156 117 -501 402 -720 595
-60 54 -115 100 -121 102 -7 3 -79 -28 -161 -70 -349 -174 -625 -270 -965
-335 -148 -29 -154 -28 -168 14 -13 40 -35 55 -79 55 -38 0 -59 -21 -73 -75
-10 -36 -17 -44 -41 -49 -49 -10 -418 -7 -528 4 -437 44 -859 175 -1305 404
l-162 83 -129 -151 c-154 -181 -474 -504 -633 -640 -63 -54 -169 -140 -235
-191 -188 -144 -459 -325 -470 -313 -6 5 -7 1989 -1 1995 11 12 79 -89 94
-139 12 -42 22 -58 35 -58 11 0 17 8 17 23 0 40 46 121 94 165 58 53 141 91
221 101 60 8 69 7 154 -4z m-1888 -82 c13 -16 12 -17 -3 -4 -10 7 -18 15 -18
17 0 8 8 3 21 -13z m10069 -63 c0 -5 -4 -10 -10 -10 -5 0 -10 5 -10 10 0 6 5
10 10 10 6 0 10 -4 10 -10z m60 -25 c-7 -9 -15 -13 -19 -10 -3 3 1 10 9 15 21
14 24 12 10 -5z m-9428 -1657 c-7 -7 -12 -8 -12 -2 0 14 12 26 19 19 2 -3 -1
-11 -7 -17z m8068 -278 c0 -5 -4 -10 -10 -10 -5 0 -10 5 -10 10 0 6 5 10 10
10 6 0 10 -4 10 -10z m-9940 -94 c0 -3 -4 -8 -10 -11 -5 -3 -10 -1 -10 4 0 6
5 11 10 11 6 0 10 -2 10 -4z m4708 -2666 c39 -63 72 -120 74 -126 2 -6 -21
-32 -49 -58 l-53 -48 -60 53 c-69 60 -54 66 -171 -62 l-81 -89 97 -157 c52
-86 94 -162 91 -170 -3 -7 -28 -47 -57 -89 -46 -69 -52 -74 -63 -57 -41 60
-290 511 -290 525 -1 20 474 412 485 400 3 -4 38 -59 77 -122z m3180 82 c31
-27 141 -117 244 -201 l188 -153 -24 -41 c-14 -23 -77 -134 -141 -247 -64
-113 -120 -209 -124 -213 -7 -7 -111 153 -111 170 0 2 37 65 81 138 l82 134
-61 68 c-33 37 -76 83 -95 102 l-36 34 -58 -51 c-32 -28 -62 -48 -69 -44 -6 4
-32 25 -57 48 l-46 41 82 131 c45 73 83 132 85 132 2 0 29 -22 60 -48z m229
-1084 l251 -423 -2136 -3 c-1174 -1 -2138 0 -2140 3 -3 3 46 80 108 173 62 92
189 281 282 420 l168 252 1608 0 1607 0 252 -422z m-3367 -818 l0 -360 -212 2
-213 3 -3 358 -2 357 215 0 215 0 0 -360z m220 4 l0 -354 -90 0 -90 0 0 355 0
356 90 -2 90 -1 0 -354z m460 2 l0 -354 -22 -6 c-13 -3 -107 -6 -210 -6 l-188
0 0 360 0 360 210 0 210 0 0 -354z m208 -3 l2 -353 -90 0 -90 0 0 348 c0 192
3 352 7 356 4 4 43 5 88 4 l80 -3 3 -352z m462 2 l0 -355 -182 -1 c-101 -1
-194 -2 -208 -3 l-25 -1 -3 358 -2 357 210 0 210 0 0 -355z m220 0 l0 -355
-90 0 -90 0 0 355 0 355 90 0 90 0 0 -355z m450 0 l0 -355 -210 0 -210 0 0
355 0 355 210 0 210 0 0 -355z m218 -2 l2 -353 -90 0 -90 0 0 355 0 356 88 -3
87 -3 3 -352z m452 2 l0 -355 -207 0 -208 0 2 342 c1 189 2 349 3 356 0 9 48
12 205 12 l205 0 0 -355z m220 0 l0 -355 -90 0 -90 0 0 355 0 355 90 0 90 0 0
-355z m470 0 l0 -355 -215 0 -215 0 0 355 0 355 215 0 215 0 0 -355z m-6816
-75 c109 -176 199 -326 200 -333 1 -13 -257 -247 -273 -247 -4 0 -71 59 -148
130 -78 72 -143 130 -146 130 -3 0 -92 -93 -198 -207 -106 -115 -212 -228
-235 -253 l-43 -45 242 -395 243 -395 713 -5 713 -5 82 -195 c45 -107 85 -203
89 -212 6 -17 -43 -18 -943 -18 l-949 0 -172 303 c-95 166 -266 468 -382 671
-115 203 -211 376 -213 385 -3 11 184 170 604 513 334 273 609 497 612 497 3
0 94 -144 204 -319z m10525 -199 l591 -484 -19 -31 c-10 -17 -134 -236 -276
-486 -142 -250 -308 -543 -369 -650 l-111 -195 -953 -3 c-525 -1 -952 2 -950
6 1 5 41 102 88 215 l85 207 715 0 715 0 215 352 c118 193 227 372 242 398
l28 46 -232 250 c-127 137 -234 250 -238 252 -4 2 -71 -56 -150 -128 -78 -71
-145 -130 -149 -130 -4 0 -69 54 -145 121 -131 115 -137 122 -123 142 8 12 94
150 191 305 97 156 184 295 193 308 15 23 16 23 38 6 13 -9 289 -235 614 -501z
m-1139 -1191 c0 -5 -4 -10 -10 -10 -5 0 -10 5 -10 10 0 6 5 10 10 10 6 0 10
-4 10 -10z m744 2 c3 -5 -1 -9 -9 -9 -8 0 -12 4 -9 9 3 4 7 8 9 8 2 0 6 -4 9
-8z m-10444 -162 c0 -5 -4 -10 -10 -10 -5 0 -10 5 -10 10 0 6 5 10 10 10 6 0
10 -4 10 -10z m3781 -627 c13 -16 12 -17 -3 -4 -10 7 -18 15 -18 17 0 8 8 3
21 -13z"/>
<path d="M6665 7074 c-234 -42 -449 -130 -901 -366 -681 -357 -966 -425 -1358
-323 -176 46 -299 98 -722 310 -447 224 -613 296 -802 347 -110 30 -127 32
-297 32 -163 1 -190 -2 -285 -26 -210 -53 -358 -118 -772 -337 -339 -179 -482
-246 -640 -298 l-107 -35 20 -37 c10 -19 19 -40 19 -46 0 -14 90 -294 144
-451 25 -73 46 -139 46 -148 0 -9 8 -16 18 -16 26 1 224 97 547 267 413 216
578 286 785 330 116 24 314 24 436 0 l91 -19 7 -291 c4 -161 10 -320 14 -355
l8 -63 -26 6 c-121 32 -178 39 -310 39 -204 1 -344 -32 -606 -144 -103 -43
-646 -322 -688 -353 -19 -14 -19 -15 1 -48 11 -19 43 -77 70 -129 80 -152 135
-252 160 -295 13 -22 35 -64 49 -92 14 -29 28 -53 31 -53 3 0 85 40 182 89 97
49 228 109 291 134 107 42 294 97 330 97 12 0 25 -30 49 -117 42 -152 100
-297 177 -450 l62 -123 -102 0 c-137 0 -264 -23 -421 -75 -176 -58 -226 -82
-218 -101 3 -8 12 -13 20 -10 8 3 11 1 8 -4 -5 -9 29 -61 70 -106 5 -6 17 -22
25 -35 8 -12 30 -39 47 -59 18 -21 33 -40 33 -44 0 -3 9 -16 19 -28 11 -13 42
-52 70 -87 60 -76 125 -152 164 -190 15 -16 27 -31 27 -35 0 -4 10 -17 23 -30
12 -12 65 -69 117 -126 120 -131 291 -303 398 -400 46 -41 102 -93 125 -115
23 -22 74 -66 112 -98 76 -63 162 -136 179 -152 19 -17 110 -87 220 -168 16
-12 34 -27 40 -32 35 -34 87 -66 96 -60 6 4 9 1 8 -5 -2 -6 35 -38 82 -70 47
-32 90 -63 96 -68 5 -5 21 -15 34 -22 13 -7 33 -21 44 -31 11 -11 24 -19 28
-19 5 0 55 -32 112 -70 57 -39 107 -70 111 -70 4 0 19 -8 33 -19 25 -17 41
-27 140 -82 20 -12 42 -25 47 -29 6 -5 35 -22 65 -38 30 -16 76 -41 103 -55
42 -24 93 -52 153 -85 10 -6 47 -24 81 -41 34 -17 70 -35 80 -40 10 -6 50 -24
88 -42 39 -17 106 -48 150 -69 80 -38 132 -60 140 -60 3 0 5 443 5 985 l0 985
38 19 c42 22 82 57 82 72 0 6 -5 19 -10 30 -10 17 -6 17 47 -7 32 -14 150 -64
262 -110 888 -367 1711 -577 2601 -665 266 -26 855 -37 1125 -20 946 59 1818
274 2723 673 l183 81 27 -20 c15 -11 42 -27 60 -37 l32 -17 0 -954 c0 -525 3
-955 8 -955 8 0 334 163 402 202 25 14 72 40 105 58 91 50 149 83 155 90 3 3
25 16 50 29 25 14 71 42 103 63 32 21 61 38 63 38 6 0 96 60 104 69 3 3 17 12
32 20 15 8 37 22 47 33 11 10 23 18 26 18 4 0 27 14 51 31 39 27 43 33 32 47
-12 15 -11 16 4 3 16 -12 25 -8 80 33 35 25 68 49 73 54 6 4 33 23 60 42 28
18 57 42 66 52 9 10 20 18 24 18 6 0 85 62 121 95 6 5 26 21 44 35 34 26 155
125 178 147 7 7 11 17 7 23 -3 5 0 8 7 5 16 -6 37 12 270 228 65 60 115 114
111 120 -3 5 -2 7 4 4 13 -8 56 37 46 48 -5 4 -3 5 3 2 14 -8 37 17 26 28 -4
5 -2 5 4 2 6 -3 47 33 92 81 45 48 103 111 131 140 27 28 47 52 44 52 -3 0 20
27 52 59 66 68 96 111 88 124 -3 6 -2 7 4 4 9 -6 83 64 83 78 0 4 15 23 34 43
19 21 68 82 110 137 41 55 104 139 140 187 66 87 77 105 54 92 -8 -4 -10 -3
-5 2 5 5 13 9 19 9 18 0 53 54 42 64 -32 32 -333 91 -466 91 -43 0 -78 1 -78
3 0 1 29 59 64 128 75 149 136 303 177 448 16 57 30 105 31 107 2 1 53 -10
113 -26 115 -29 278 -89 429 -159 87 -41 116 -45 116 -18 0 14 66 143 85 167
7 8 54 96 105 195 51 99 96 182 100 185 4 3 10 14 14 25 5 18 -22 34 -237 141
-377 189 -574 258 -805 284 -101 11 -253 2 -347 -20 -72 -17 -72 -17 -63 53 4
34 10 191 14 349 l7 286 43 11 c74 19 236 32 309 26 172 -16 360 -69 570 -161
61 -26 246 -117 412 -201 166 -85 317 -160 335 -168 32 -13 34 -12 36 8 1 12
17 62 37 110 20 48 32 93 29 99 -4 6 -3 8 3 5 5 -3 15 11 22 31 45 131 116
324 133 364 12 27 20 50 17 52 -2 2 -47 20 -99 41 -52 20 -270 125 -483 232
-428 214 -549 267 -724 317 -290 83 -512 73 -830 -38 -137 -48 -296 -122 -628
-292 -310 -158 -468 -229 -613 -274 -266 -82 -451 -88 -698 -24 -148 38 -294
99 -564 237 -140 72 -319 163 -397 202 -444 226 -755 285 -1087 206 -205 -49
-345 -107 -844 -350 -486 -237 -632 -292 -856 -326 -122 -18 -177 -19 -283 -4
-231 31 -453 121 -918 374 -406 221 -626 312 -841 350 -106 18 -272 18 -379
-1z m-3503 -1054 c201 -332 439 -597 670 -747 81 -52 234 -127 305 -150 l53
-17 0 -552 0 -552 68 -40 c188 -111 427 -241 702 -381 288 -147 449 -247 450
-278 0 -18 -98 -61 -156 -68 -202 -26 -545 149 -986 501 -73 59 -139 112 -147
118 -19 15 -9 -28 35 -163 109 -331 331 -572 680 -738 197 -93 244 -187 169
-339 -15 -30 -34 -58 -43 -62 -19 -7 -149 37 -397 135 -790 313 -1381 752
-1747 1298 -107 160 -235 422 -297 610 -53 161 -103 389 -121 547 -18 169 -33
173 188 -53 208 -213 332 -318 435 -368 61 -30 179 -66 196 -59 5 2 -11 48
-35 102 -128 287 -196 534 -229 831 -16 134 -26 554 -18 729 l4 100 76 -145
c42 -79 107 -196 145 -259z m11753 -76 c-13 -491 -76 -790 -253 -1189 -22 -49
-36 -91 -31 -93 16 -7 135 29 194 58 105 52 225 152 433 364 226 230 210 226
191 58 -52 -488 -257 -978 -567 -1362 -352 -434 -896 -811 -1562 -1080 -180
-72 -397 -150 -422 -150 -23 0 -76 92 -84 146 -16 109 41 182 200 257 278 133
482 319 604 554 39 76 102 247 117 323 9 41 19 47 -153 -93 -494 -400 -863
-566 -1072 -480 -19 7 -42 21 -52 30 -17 15 -6 23 191 124 316 162 534 288
944 548 l67 43 0 552 0 552 53 17 c80 25 232 102 322 162 290 196 561 534 805
1007 l65 126 8 -126 c4 -70 5 -226 2 -348z m-12335 416 c0 -5 -4 -10 -10 -10
-5 0 -10 5 -10 10 0 6 5 10 10 10 6 0 10 -4 10 -10z m8811 -48 c-7 -2 -18 1
-23 6 -8 8 -4 9 13 5 13 -4 18 -8 10 -11z m-4411 -12 c228 -28 446 -116 930
-378 360 -195 545 -276 746 -328 98 -26 126 -29 269 -29 165 0 210 7 370 52
153 42 306 108 685 293 400 195 503 241 660 293 178 59 256 72 435 72 139 -1
174 -4 266 -27 207 -52 353 -116 779 -338 382 -200 571 -280 754 -319 l80 -17
-55 -31 c-188 -108 -685 -353 -714 -353 -9 0 -94 40 -188 89 -444 231 -701
310 -971 298 -139 -6 -235 -24 -391 -74 -158 -51 -274 -102 -685 -303 -593
-289 -781 -349 -1065 -337 -257 10 -465 88 -980 367 -471 255 -688 341 -933
370 -277 34 -584 -54 -1067 -304 -88 -46 -167 -81 -175 -78 -84 28 -770 350
-770 361 0 3 37 16 83 28 164 42 299 101 702 304 438 221 550 272 711 325 195
63 360 84 524 64z m-3748 -171 c51 -22 246 -118 433 -213 187 -95 383 -190
435 -212 l95 -40 3 -257 c1 -165 -1 -257 -8 -257 -22 0 -150 53 -229 96 -269
143 -537 421 -755 784 -71 117 -83 140 -71 140 2 0 46 -18 97 -41z m11414 -97
c-116 -192 -254 -371 -391 -507 -131 -131 -234 -209 -366 -279 -79 -43 -207
-96 -229 -96 -7 0 -9 92 -8 257 l3 257 95 40 c52 22 241 114 420 205 319 161
540 265 549 256 2 -3 -31 -62 -73 -133z m2089 -32 c3 -5 1 -10 -4 -10 -6 0
-11 5 -11 10 0 6 2 10 4 10 3 0 8 -4 11 -10z m-12312 -178 c1044 -596 2057
-993 3052 -1196 569 -116 995 -159 1570 -160 459 -1 755 21 1165 85 1091 170
2201 606 3238 1271 85 54 156 98 158 98 2 0 4 -427 4 -949 l0 -949 -157 -100
c-1043 -659 -2066 -1070 -3113 -1251 -476 -83 -747 -105 -1275 -105 -516 -1
-793 21 -1274 100 -1099 180 -2225 600 -3383 1262 l-168 95 0 949 c0 521 2
948 5 948 3 0 83 -44 178 -98z m7892 78 c3 -5 1 -10 -4 -10 -6 0 -11 5 -11 10
0 6 2 10 4 10 3 0 8 -4 11 -10z m1460 -120 c-3 -5 -12 -10 -18 -10 -7 0 -6 4
3 10 19 12 23 12 15 0z m1372 -724 c0 -8 -6 -12 -15 -9 -11 5 -11 7 0 14 7 5
13 9 14 9 0 0 1 -6 1 -14z m-6813 -114 c3 -5 -1 -9 -9 -9 -8 0 -12 4 -9 9 3 4
7 8 9 8 2 0 6 -4 9 -8z m-1264 -142 c97 -20 282 -79 330 -106 l25 -14 -25 5
c-53 9 -478 115 -501 124 -45 18 66 12 171 -9z m4020 -11 c-73 -30 -657 -166
-667 -156 -6 6 203 84 297 110 73 21 145 36 250 51 14 2 52 4 85 4 50 1 56 -1
35 -9z m-6694 -1205 c67 -50 163 -117 214 -150 74 -47 88 -60 69 -62 -31 -5
-168 16 -267 40 -95 24 -111 38 -163 154 -28 61 -69 169 -69 182 0 2 21 -13
47 -34 26 -22 102 -80 169 -130z m9254 100 c-11 -32 -41 -101 -66 -151 l-46
-93 -51 -15 c-97 -27 -182 -44 -262 -51 -44 -4 -78 -4 -75 -2 3 3 66 46 140
96 74 50 189 133 255 185 66 52 121 94 123 92 1 -1 -7 -28 -18 -61z m-210
-344 c13 -8 13 -10 -2 -10 -9 0 -20 5 -23 10 -8 13 5 13 25 0z m790 -236 c0
-8 -19 -13 -24 -6 -3 5 1 9 9 9 8 0 15 -2 15 -3z m-1483 -306 c-3 -8 -6 -5 -6
6 -1 11 2 17 5 13 3 -3 4 -12 1 -19z m113 -298 c0 -5 -2 -10 -4 -10 -3 0 -8 5
-11 10 -3 6 -1 10 4 10 6 0 11 -4 11 -10z"/>
<path d="M5048 5164 c-10 -22 -10 -28 5 -39 9 -7 17 -19 17 -27 0 -16 -105
-244 -122 -265 -6 -8 -17 -9 -33 -3 -20 8 -25 5 -35 -21 -7 -16 -11 -31 -9
-32 11 -8 191 -87 198 -87 4 0 13 12 20 27 12 26 3 42 -21 43 -15 0 -8 31 17
81 21 41 29 48 43 40 9 -5 43 -21 75 -35 l57 -25 -27 -56 c-25 -51 -30 -56
-56 -52 -23 3 -31 -2 -42 -23 l-14 -27 96 -44 c53 -24 99 -45 104 -47 4 -2 15
10 23 27 15 28 15 30 -4 36 -11 4 -20 15 -20 26 0 11 29 78 65 149 63 126 66
129 93 124 23 -5 30 -1 40 20 12 26 11 27 -75 67 -121 55 -129 57 -137 24 -5
-21 -2 -31 13 -41 20 -14 20 -14 -1 -64 -11 -28 -24 -50 -29 -50 -5 0 -39 15
-76 32 -38 18 -69 33 -71 34 -2 1 7 23 20 49 20 42 26 46 51 42 23 -3 31 2 43
25 14 27 13 29 -8 37 -13 5 -58 25 -101 45 -43 20 -80 36 -83 36 -2 0 -10 -12
-16 -26z"/>
<path d="M12713 5093 c-7 -2 -13 -10 -13 -17 0 -8 -19 -16 -47 -20 -136 -18
-227 -153 -189 -279 37 -125 140 -197 260 -183 58 6 127 45 156 86 17 24 25
28 36 19 10 -8 21 -8 44 2 16 8 30 18 30 23 0 5 -17 40 -37 78 l-38 70 21 17
c20 16 20 20 8 44 -11 19 -19 24 -32 19 -26 -11 -176 -84 -181 -88 -2 -2 2
-17 9 -33 11 -27 14 -29 37 -18 22 10 28 8 44 -12 25 -31 24 -57 -5 -86 -75
-75 -201 -8 -238 128 -10 38 -9 49 8 83 15 30 29 42 61 54 39 13 46 13 98 -9
54 -22 57 -23 75 -6 11 10 20 21 20 25 0 14 -92 110 -103 109 -7 0 -18 -3 -24
-6z"/>
<path d="M5571 4923 c-11 -25 -10 -29 8 -42 12 -7 21 -19 21 -25 0 -11 -98
-240 -114 -264 -5 -8 -19 -12 -33 -9 -19 3 -27 -2 -39 -24 -17 -33 -43 -17
209 -121 l148 -61 65 64 64 63 -24 25 -24 24 -35 -27 c-19 -15 -51 -30 -70
-33 -41 -6 -136 22 -144 44 -5 12 34 113 43 113 2 0 15 -5 29 -12 23 -10 26
-16 21 -44 -5 -24 -2 -33 10 -38 31 -12 42 -5 62 42 11 26 27 64 36 85 16 37
16 37 -10 47 -22 9 -29 7 -45 -14 -17 -22 -23 -24 -49 -14 -17 5 -30 11 -30
13 0 13 43 95 50 95 4 0 28 -9 53 -19 52 -22 84 -59 93 -107 6 -31 9 -34 40
-34 l34 0 0 80 c0 47 -4 80 -10 80 -8 0 -209 82 -336 136 -6 3 -16 -8 -23 -23z"/>
<path d="M12245 4868 c-87 -37 -89 -39 -74 -71 10 -21 15 -24 34 -17 16 6 27
5 33 -3 18 -23 72 -158 59 -150 -6 4 -50 39 -97 78 -47 39 -93 76 -102 83 -14
11 -30 8 -102 -24 -47 -20 -86 -38 -86 -40 0 -2 5 -14 11 -27 8 -19 18 -24 41
-23 29 1 32 -3 91 -138 l61 -138 -23 -17 c-19 -14 -21 -21 -12 -44 6 -15 12
-27 15 -27 5 0 169 70 174 74 1 2 -2 15 -9 29 -9 19 -18 24 -41 23 -28 -1 -32
4 -72 94 -60 136 -61 137 -39 118 63 -54 259 -211 268 -214 15 -6 85 24 85 36
0 5 -31 82 -70 171 -68 155 -79 189 -62 189 23 1 32 18 23 43 -13 33 -19 33
-106 -5z"/>
<path d="M6032 4732 c-9 -27 -8 -31 15 -41 28 -13 30 -2 -29 -171 -46 -132
-53 -143 -84 -136 -18 5 -24 0 -32 -23 l-11 -30 170 -56 170 -57 19 25 c11 13
35 43 55 67 19 23 35 45 35 49 0 4 -11 14 -25 21 -22 12 -28 11 -48 -7 -12
-11 -32 -26 -44 -32 -27 -14 -98 -14 -123 -1 -18 9 -16 17 26 136 57 163 59
166 89 158 20 -5 27 -1 35 21 5 14 10 28 10 30 0 2 -44 18 -97 36 -54 17 -103
34 -109 36 -7 2 -16 -9 -22 -25z"/>
<path d="M11625 4630 c-140 -46 -204 -160 -166 -298 16 -57 80 -126 137 -148
92 -35 233 2 301 80 41 46 57 97 50 161 -17 164 -163 257 -322 205z m142 -114
c45 -48 69 -135 54 -188 -23 -75 -112 -101 -172 -51 -40 34 -79 116 -79 168 0
116 116 158 197 71z"/>
<path d="M6505 4400 c-95 -118 -135 -160 -151 -160 -15 0 -25 -9 -32 -30 l-11
-30 86 -26 c70 -21 87 -24 94 -12 14 21 10 46 -8 57 -14 8 -15 13 -5 35 16 37
29 39 97 18 58 -17 60 -19 63 -55 3 -33 1 -37 -21 -37 -19 0 -28 -8 -35 -29
l-10 -28 103 -32 c57 -17 105 -31 108 -31 3 0 8 12 11 26 5 18 2 32 -9 44 -12
13 -20 61 -30 191 -8 96 -15 186 -15 201 0 24 -6 29 -52 43 -28 8 -52 15 -52
15 -1 0 -59 -72 -131 -160z m129 -39 l7 -54 -33 7 c-51 10 -54 21 -18 66 18
22 34 40 35 38 1 -2 5 -27 9 -57z"/>
<path d="M11223 4491 c-50 -14 -94 -29 -98 -32 -3 -4 -3 -19 1 -33 5 -21 11
-26 32 -24 29 3 48 -24 54 -76 3 -28 0 -30 -62 -47 -36 -11 -71 -18 -79 -17
-8 2 -20 25 -27 51 -12 47 -11 49 12 59 19 9 22 16 17 37 -3 14 -7 28 -9 30
-4 4 -202 -47 -216 -55 -4 -3 -2 -17 3 -33 8 -22 15 -27 34 -24 16 4 26 -1 33
-14 10 -20 82 -266 82 -282 0 -5 -9 -13 -20 -16 -23 -7 -28 -53 -6 -61 14 -5
195 43 209 55 4 4 4 18 -1 31 -7 18 -17 24 -37 25 -26 0 -30 5 -46 60 -10 32
-17 60 -16 61 1 0 37 10 80 22 l78 21 9 -25 c6 -14 13 -43 16 -65 6 -35 4 -41
-15 -46 -23 -6 -27 -24 -11 -52 9 -18 14 -17 111 10 56 15 104 30 106 33 3 3
3 17 -1 31 -5 19 -13 25 -35 25 -32 0 -29 -7 -92 214 l-23 78 24 18 c18 13 21
23 16 44 -8 31 -6 31 -123 -3z"/>
<path d="M6925 4447 c-8 -30 0 -47 21 -47 20 0 18 -33 -12 -156 -15 -63 -24
-122 -21 -141 22 -135 239 -192 326 -86 22 26 36 64 57 147 34 139 39 149 69
142 20 -5 24 -1 30 25 4 17 5 32 3 33 -1 2 -44 12 -95 23 l-91 20 -6 -21 c-9
-34 -7 -46 8 -46 33 0 35 -25 10 -125 -40 -161 -49 -175 -114 -175 -38 0 -80
39 -80 74 0 14 12 75 26 136 25 109 26 110 55 110 22 0 30 5 35 26 4 14 3 29
-2 33 -5 5 -45 16 -89 25 -45 9 -90 19 -102 22 -18 5 -23 1 -28 -19z"/>
<path d="M10655 4328 c-4 -9 -22 -12 -55 -10 -182 13 -304 -167 -226 -334 63
-135 236 -176 353 -84 18 14 30 17 37 10 15 -15 66 -12 72 5 3 8 -1 45 -10 82
-16 67 -15 68 7 87 20 17 23 31 12 62 -2 8 -35 5 -110 -11 -59 -13 -108 -25
-110 -27 -2 -1 -1 -15 2 -30 5 -24 10 -28 38 -28 27 0 34 -5 39 -26 10 -39 -1
-60 -40 -79 -68 -32 -133 3 -170 90 -23 55 -21 130 3 164 46 61 112 64 186 7
43 -33 44 -33 68 -15 l24 18 -35 66 c-27 51 -40 65 -58 65 -12 0 -25 -6 -27
-12z"/>
<path d="M7436 4308 c-9 -34 -8 -35 19 -42 31 -8 31 -20 2 -186 -21 -119 -23
-125 -47 -129 -29 -4 -40 -17 -40 -47 0 -19 9 -22 91 -34 76 -10 93 -10 100 1
13 21 11 49 -3 49 -39 1 -41 14 -23 134 10 64 21 116 25 116 3 0 30 -73 59
-162 29 -90 55 -165 57 -167 2 -2 24 -7 48 -11 53 -8 43 -32 81 200 15 85 31
160 36 166 5 7 18 10 28 7 17 -4 30 18 31 53 0 12 -174 39 -190 29 -15 -9 -12
-55 4 -55 31 0 37 -25 24 -104 -6 -42 -14 -76 -18 -76 -3 0 -25 58 -48 128
l-42 129 -78 11 c-103 16 -109 16 -116 -10z"/>
<path d="M7956 4245 c-12 -33 -7 -55 14 -55 11 0 23 -7 26 -15 6 -14 -21 -251
-32 -287 -3 -11 -15 -18 -29 -18 -16 0 -25 -7 -29 -25 -4 -14 -4 -30 -2 -34 3
-5 38 -11 78 -15 40 -4 89 -10 109 -13 34 -5 37 -4 41 26 4 26 1 32 -24 40
-23 8 -27 14 -23 38 3 15 11 81 19 146 8 64 18 122 21 127 3 6 17 10 31 10 20
0 24 5 24 29 0 34 -6 37 -100 46 -36 3 -77 8 -91 11 -19 4 -28 0 -33 -11z"/>
<path d="M10056 4230 l-49 -5 -52 -194 c-39 -143 -58 -198 -73 -210 -15 -12
-19 -23 -15 -44 5 -28 8 -29 49 -23 146 20 135 16 132 45 -2 18 -10 27 -25 29
-19 3 -23 10 -23 38 0 40 13 47 96 57 48 5 52 4 63 -19 17 -37 14 -54 -10 -54
-18 0 -20 -4 -14 -32 4 -18 8 -34 9 -35 3 -4 206 24 212 30 12 12 -5 52 -28
62 -14 6 -56 72 -117 182 -53 94 -98 173 -101 175 -3 2 -27 1 -54 -2z m30
-181 c14 -28 24 -52 22 -54 -11 -9 -78 -14 -78 -6 0 15 23 111 27 111 1 0 14
-23 29 -51z"/>
<path d="M8500 4177 c0 -8 -3 -22 -6 -31 -4 -11 0 -16 14 -16 38 0 42 -19 33
-168 -5 -77 -12 -145 -16 -151 -3 -6 -14 -11 -25 -11 -17 0 -38 -46 -25 -58 3
-3 55 -8 115 -10 l110 -5 0 31 c0 24 -5 31 -25 36 -38 10 -35 66 6 100 17 14
35 26 40 26 5 0 28 -28 50 -62 40 -62 40 -63 17 -68 -17 -4 -24 -14 -26 -38
l-3 -32 53 0 c29 0 83 -3 121 -7 l67 -6 0 37 c0 29 -4 36 -20 36 -13 0 -41 31
-90 102 -38 56 -70 105 -70 109 0 13 120 101 148 108 21 6 28 14 30 38 l3 30
-102 6 c-56 4 -106 4 -110 1 -5 -3 -9 -18 -9 -35 0 -23 4 -29 21 -29 31 0 21
-12 -61 -78 l-75 -60 -3 54 c-3 60 10 94 37 94 17 0 39 45 28 57 -3 2 -55 7
-116 10 -97 5 -111 4 -111 -10z"/>
<path d="M9435 4181 l-90 -6 0 -30 c0 -25 4 -31 27 -33 25 -3 27 -6 32 -75 3
-40 7 -110 8 -156 3 -83 2 -85 -22 -91 -20 -5 -25 -12 -23 -34 1 -16 4 -30 6
-33 3 -2 76 1 163 6 125 9 167 15 201 32 77 37 98 125 44 180 -16 16 -37 29
-45 29 -23 0 -20 8 14 40 58 54 31 148 -48 170 -38 10 -109 10 -267 1z m219
-87 c41 -40 4 -83 -75 -87 l-54 -2 -3 53 -3 52 60 0 c41 0 65 -5 75 -16z m26
-196 c13 -25 13 -29 -6 -55 -18 -24 -29 -28 -74 -31 -62 -4 -70 4 -70 70 l0
47 38 3 c61 5 95 -5 112 -34z"/>
<path d="M9050 4135 c0 -30 3 -35 24 -35 22 0 23 -5 30 -77 3 -42 6 -112 6
-155 0 -79 0 -80 -30 -91 -23 -9 -30 -17 -30 -39 l0 -28 115 0 115 0 0 35 c0
30 -3 35 -24 35 -23 0 -24 3 -31 103 -4 56 -5 127 -3 157 3 48 6 55 28 60 19
4 26 13 28 38 l3 32 -115 0 -116 0 0 -35z"/>
<path d="M6263 4004 c-49 -29 -53 -42 -19 -73 l25 -23 34 21 35 21 26 -31 c23
-27 31 -30 61 -25 48 9 46 35 -8 91 -52 54 -89 59 -154 19z"/>
<path d="M11568 3896 c-23 -17 -23 -25 5 -58 21 -27 23 -27 44 -10 l23 17 -20
33 c-22 36 -27 37 -52 18z"/>
<path d="M5835 3798 c-10 -24 -20 -74 -22 -113 -5 -88 14 -129 78 -163 67 -36
133 -28 299 38 119 48 145 54 220 57 111 5 134 -6 138 -67 3 -37 -5 -61 -44
-139 l-47 -93 24 -19 c13 -10 31 -18 39 -16 8 1 36 45 64 98 42 82 49 105 50
155 1 109 -53 160 -182 171 -85 7 -124 -2 -294 -68 -149 -57 -210 -64 -246
-26 -12 13 -22 35 -22 49 0 23 18 89 35 130 5 12 -1 21 -24 32 -43 23 -47 21
-66 -26z"/>
<path d="M11436 3825 c-18 -13 -18 -15 4 -49 18 -30 25 -34 40 -26 31 16 32
28 10 60 -24 34 -28 35 -54 15z"/>
<path d="M11724 3777 c-47 -41 -301 -231 -367 -276 -26 -17 -51 -30 -55 -27
-5 3 -26 45 -47 93 -21 48 -41 91 -45 96 -4 4 -23 1 -43 -8 -43 -18 -44 -11
29 -162 27 -56 54 -99 70 -110 26 -16 28 -16 78 10 48 25 211 144 404 295 l84
64 -28 29 c-15 16 -31 29 -34 29 -4 0 -24 -15 -46 -33z"/>
<path d="M9843 3627 c-9 -18 -17 -56 -17 -85 -1 -74 12 -82 131 -82 l93 0 0
46 0 47 -71 -7 c-79 -8 -76 -11 -54 59 5 17 -1 24 -29 38 l-36 17 -17 -33z"/>
<path d="M11782 3580 c-112 -72 -442 -311 -442 -320 0 -5 11 -21 23 -36 l24
-27 174 125 c96 68 202 143 235 166 l61 41 53 -95 c29 -51 56 -94 62 -94 5 0
23 7 39 16 l30 15 -47 87 c-51 94 -82 143 -99 154 -22 16 -54 7 -113 -32z"/>
<path d="M10770 3434 c-104 -81 -272 -196 -315 -216 -25 -11 -29 -10 -51 17
-13 16 -44 70 -71 121 l-47 91 -36 -14 c-19 -9 -37 -17 -39 -18 -8 -8 107
-211 142 -251 59 -67 97 -59 266 55 l74 49 44 -54 c42 -51 46 -54 66 -41 42
28 43 42 3 90 -21 26 -36 50 -34 55 1 5 38 37 81 71 42 34 77 65 77 69 0 12
-44 52 -56 51 -5 0 -52 -34 -104 -75z"/>
<path d="M7965 3438 c-240 -133 -527 -244 -656 -255 -62 -5 -68 -4 -82 18 -9
13 -20 58 -26 99 -11 85 -28 105 -76 95 -59 -11 -405 -126 -405 -134 0 -16 22
-71 28 -71 4 0 83 25 177 55 93 30 175 55 182 55 7 0 13 -12 13 -27 0 -85 55
-167 118 -178 120 -20 450 94 756 261 66 36 123 68 125 70 5 5 -32 74 -39 73
-3 0 -54 -28 -115 -61z"/>
<path d="M8820 3465 c-10 -31 -10 -39 1 -46 27 -18 53 -5 61 30 11 38 11 37
-23 46 -24 6 -28 3 -39 -30z"/>
<path d="M8947 3483 c-3 -5 -8 -22 -11 -39 -6 -29 -4 -33 23 -42 30 -11 31
-10 41 30 6 22 10 41 8 43 -10 8 -57 14 -61 8z"/>
<path d="M9900 3390 c-19 -3 -53 -16 -76 -28 -45 -23 -208 -142 -322 -235
l-74 -60 30 -30 30 -29 90 71 c49 39 92 71 94 71 3 0 17 -32 33 -71 27 -70 28
-71 58 -65 17 4 36 11 41 16 5 5 -4 41 -24 90 -38 95 -40 92 64 154 107 64
138 42 138 -97 l-1 -85 36 -5 c20 -4 40 -4 45 -1 4 3 8 38 8 78 0 165 -62 247
-170 226z"/>
<path d="M11623 3329 l-32 -20 51 -80 c27 -43 54 -82 59 -85 15 -9 70 29 64
45 -10 26 -97 161 -104 161 -3 0 -20 -10 -38 -21z"/>
<path d="M8454 3295 c-49 -14 -219 -100 -369 -185 -61 -34 -111 -63 -113 -65
-2 -1 7 -19 19 -39 l21 -36 32 19 c157 96 428 231 464 231 35 0 75 -45 68 -76
-3 -13 -9 -35 -12 -49 -5 -20 0 -28 27 -44 l33 -20 17 26 c16 24 118 88 193
121 l29 13 -6 -43 c-4 -24 -10 -59 -13 -79 -6 -35 -5 -37 31 -49 20 -7 38 -10
40 -8 13 13 32 152 25 188 -16 87 -69 95 -193 31 -77 -40 -97 -44 -97 -16 0 7
-16 27 -35 44 -32 27 -47 34 -105 45 -9 2 -34 -2 -56 -9z"/>
<path d="M7195 3010 c-48 -38 -50 -39 -59 -19 -8 17 -16 20 -40 15 -17 -4 -34
-10 -39 -15 -8 -8 23 -123 40 -154 4 -6 36 17 185 134 l21 16 -22 32 c-12 17
-25 31 -29 31 -4 0 -29 -18 -57 -40z"/>
</g>
</svg>
